<svg width="200" height="200" viewBox="0 0 200 200" fill="none" xmlns="http://www.w3.org/2000/svg">
<path d="M16.6667 25L18.8743 25.7358C29.8746 29.4027 35.3748 31.236 38.5207 35.6008C41.6667 39.9656 41.6667 45.7632 41.6667 57.3587V79.1667C41.6667 102.737 41.6667 114.522 48.989 121.844C56.3114 129.167 68.0964 129.167 91.6667 129.167H158.333" stroke="#050505" stroke-width="10" stroke-linecap="round"/>
<path d="M62.5 150C69.4036 150 75 155.597 75 162.5C75 169.403 69.4036 175 62.5 175C55.5964 175 50 169.403 50 162.5C50 155.597 55.5964 150 62.5 150Z" stroke="#050505" stroke-width="10"/>
<path d="M137.5 150.001C144.403 150.001 150 155.597 150 162.501C150 169.404 144.403 175.001 137.5 175.001C130.597 175.001 125 169.404 125 162.501C125 155.597 130.597 150.001 137.5 150.001Z" stroke="#050505" stroke-width="10"/>
<path d="M41.6667 50H137.087C154.212 50 162.773 50 166.479 55.6188C170.184 61.2378 166.811 69.1078 160.065 84.8483L156.493 93.1817C153.344 100.53 151.769 104.204 148.638 106.269C145.508 108.333 141.51 108.333 133.515 108.333H41.6667" stroke="#050505" stroke-width="10"/>
<path fill-rule="evenodd" clip-rule="evenodd" d="M84.375 66.5L85.9375 64.9375H114.062L115.625 66.5V91.5L114.062 93.0625H85.9375L84.375 91.5V66.5ZM87.5 68.0625V89.9375H112.5V68.0625H87.5ZM96.2279 79L91.0828 73.8548L93.2925 71.6451L100.647 79L93.2925 86.3548L91.0828 84.145L96.2279 79ZM100 86.8125H107.812V83.6875H100V86.8125Z" fill="black"/>
</svg>
